<svg xmlns="http://www.w3.org/2000/svg" xmlns:xlink="http://www.w3.org/1999/xlink" version="1.1" id="Layer_1" x="0px" y="0px" width="100px" height="100px" viewBox="0 0 100 100" enable-background="new 0 0 100 100" xml:space="preserve">
<path d="M64.654,28.808c-7.819-10.814-22.923-13.242-33.738-5.423c-10.814,7.819-13.242,22.925-5.423,33.739  c6.923,9.576,19.558,12.57,29.87,7.704c-0.114,0.373-0.062,0.793,0.185,1.137c0.421,0.579,1.229,0.709,1.81,0.29l17.666,26.645  c0.608,0.841,2.909,0.214,5.143-1.4c2.232-1.613,3.549-3.604,2.94-4.444L63.341,61.93c0.579-0.419,0.71-1.23,0.289-1.811  c-0.245-0.343-0.629-0.522-1.02-0.532C70.462,51.319,71.579,38.384,64.654,28.808z M57.623,60.322  c-9.586,6.931-22.975,4.779-29.906-4.808c-6.931-9.584-4.778-22.974,4.807-29.904c9.586-6.932,22.975-4.779,29.905,4.807  C69.361,40.003,67.209,53.392,57.623,60.322z M96.688,20.167l-1.02-1.201l-6.059,5.143c-0.693-0.636-1.609-1.033-2.625-1.033  c-0.841,0-1.614,0.272-2.252,0.726L70.206,10.652c0.224-0.491,0.355-1.033,0.355-1.608c0-2.154-1.746-3.899-3.899-3.899  s-3.898,1.746-3.898,3.899c0,1.087,0.447,2.069,1.165,2.776l-6.252,9.332l1.31,0.876l6.268-9.358c0.438,0.17,0.91,0.272,1.408,0.272  c1.006,0,1.913-0.391,2.605-1.017l14.396,13.031c-0.358,0.59-0.577,1.276-0.577,2.017c0,2.153,1.746,3.899,3.898,3.899  c2.154,0,3.899-1.746,3.899-3.899c0-0.567-0.127-1.103-0.346-1.589L96.688,20.167z M66.662,11.438c-1.322,0-2.394-1.072-2.394-2.394  S65.34,6.65,66.662,6.65s2.394,1.072,2.394,2.394S67.984,11.438,66.662,11.438z M86.984,29.369c-1.321,0-2.393-1.072-2.393-2.394  s1.071-2.394,2.393-2.394c1.322,0,2.395,1.072,2.395,2.394S88.307,29.369,86.984,29.369z M26.995,25.662l-9.555-8.648  c0.367-0.594,0.589-1.289,0.589-2.039c0-2.154-1.746-3.899-3.899-3.899c-2.153,0-3.899,1.746-3.899,3.899  c0,0.628,0.163,1.213,0.426,1.739l-6.827,5.794l1.019,1.2l6.786-5.76c0.678,0.569,1.541,0.925,2.495,0.925  c0.833,0,1.601-0.266,2.234-0.71l9.574,8.666L26.995,25.662z M11.737,14.975c0-1.322,1.071-2.394,2.393-2.394  c1.322,0,2.395,1.072,2.395,2.394c0,1.322-1.072,2.394-2.395,2.394C12.809,17.369,11.737,16.297,11.737,14.975z M55.713,25.668  c-1.19-0.778-2.275-1.228-2.422-1.003l-4.772,7.296c-1.379-0.657-2.917-1.036-4.546-1.036c-2.301,0-4.424,0.741-6.161,1.987  l-5.842-5.385c-0.183-0.169-1.112,0.542-2.076,1.588c-0.964,1.045-1.598,2.03-1.415,2.198h0l5.998,5.529  c-0.697,1.412-1.099,2.995-1.099,4.676c0,5.851,4.743,10.594,10.594,10.594c5.851,0,10.594-4.743,10.594-10.594  c0-2.342-0.77-4.5-2.057-6.253l5.091-7.781v-0.001C57.748,27.26,56.902,26.446,55.713,25.668z M43.973,48.183  c-3.681,0-6.665-2.984-6.665-6.665c0-3.681,2.984-6.665,6.665-6.665s6.665,2.983,6.665,6.665  C50.638,45.199,47.654,48.183,43.973,48.183z"/>
</svg>