<svg xmlns="http://www.w3.org/2000/svg" xmlns:xlink="http://www.w3.org/1999/xlink" version="1.1" id="Layer_1" x="0px" y="0px" width="90px" height="90px" viewBox="0 0 90 90" enable-background="new 0 0 90 90" xml:space="preserve">
<path d="M85.543,51.729H77.52v-7.184c0-1.172-0.951-2.123-2.124-2.123H46.907V37.36h8.024c2.288,0,4.148-1.86,4.148-4.148V12.919  c0-2.288-1.86-4.149-4.148-4.149H34.638c-2.288,0-4.148,1.861-4.148,4.149v20.293c0,2.288,1.86,4.148,4.148,4.148h8.023v5.061  H14.749c-1.173,0-2.124,0.951-2.124,2.123v7.184H4.603c-2.288,0-4.148,1.862-4.148,4.15v20.293c0,2.288,1.86,4.148,4.148,4.148  h20.294c2.288,0,4.148-1.86,4.148-4.148V55.879c0-2.288-1.861-4.15-4.148-4.15h-8.024v-5.061h25.789v5.061h-8.023  c-2.288,0-4.148,1.862-4.148,4.15v20.293c0,2.288,1.86,4.148,4.148,4.148h20.294c2.288,0,4.148-1.86,4.148-4.148V55.879  c0-2.288-1.86-4.15-4.148-4.15h-8.024v-5.061h26.364v5.061h-8.023c-2.287,0-4.147,1.862-4.147,4.15v20.293  c0,2.288,1.86,4.148,4.147,4.148h20.295c2.287,0,4.148-1.86,4.148-4.148V55.879C89.691,53.591,87.83,51.729,85.543,51.729z   M34.638,13.017l20.196-0.098v20.195l-20.098,0.098L34.638,13.017z M24.798,76.074L4.701,76.172L4.603,55.977l20.196-0.098V76.074z   M54.834,76.074l-20.098,0.098l-0.098-20.195l20.196-0.098V76.074z M85.444,76.074l-20.098,0.098l-0.099-20.195l20.196-0.098V76.074  z"/>
</svg>